<?xml version="1.0" encoding="UTF-8"?>
<svg width="24px" height="24px" viewBox="0 0 24 24" version="1.1" xmlns="http://www.w3.org/2000/svg">
    <g stroke="none" stroke-width="1" fill="none" fill-rule="evenodd">
        <path d="M12,2 C13.66,2 15,3.34 15,5 L15,11 C15,12.66 13.66,14 12,14 C10.34,14 9,12.66 9,11 L9,5 C9,3.34 10.34,2 12,2 Z" fill="#1890FF"/>
        <path d="M19,11 L17,11 C17,14.53 14.39,17.44 11,17.93 L11,21 L13,21 C13.55,21 14,21.45 14,22 C14,22.55 13.55,23 13,23 L11,23 L7,23 C6.45,23 6,22.55 6,22 C6,21.45 6.45,21 7,21 L9,21 L9,17.93 C5.61,17.44 3,14.53 3,11 L1,11 C0.45,11 0,10.55 0,10 C0,9.45 0.45,9 1,9 L3,9 L3,11 C3,13.76 5.24,16 8,16 L16,16 C18.76,16 21,13.76 21,11 L21,9 L23,9 C23.55,9 24,9.45 24,10 C24,10.55 23.55,11 23,11 L21,11 L19,11 Z" fill="#1890FF"/>
    </g>
</svg>
